<svg id="LFO_HLF" xmlns="http://www.w3.org/2000/svg" viewBox="0 0 52.68 43.71"><defs><style>.cls-1{fill:#fff;}</style></defs><g id="WAVE_RESET"><path class="cls-1" d="M42.27,44.72a3.24,3.24,0,0,1-3.11-2.33l-.59-2C37,35.19,34.2,25.51,32.13,24.74c-2.15,0-5.56,8.29-6.81,16.73a3.25,3.25,0,0,1-6.43-.94,68.25,68.25,0,0,1,2.47-10.31c2.64-7.94,6.29-12,10.85-12,6.64,0,9.4,9.41,12.6,20.31l.58,2a3.25,3.25,0,0,1-2.19,4A3.31,3.31,0,0,1,42.27,44.72Z" transform="translate(-13.57 -18.25)"/></g><g id="WAVE_RESET-2" data-name="WAVE_RESET"><path class="cls-1" d="M52,61.75a7,7,0,0,1-1-.08,3.25,3.25,0,1,1,1-6.42h0a1.35,1.35,0,0,0,.44-.07,3.25,3.25,0,0,1,2,6.18A7.89,7.89,0,0,1,52,61.75Zm-5.74-5.7a3.26,3.26,0,0,1-3-1.87c-.29-.63-.58-1.3-.87-2a3.25,3.25,0,0,1,6-2.44c.23.58.47,1.14.72,1.67a3.25,3.25,0,0,1-2.93,4.64Zm12.55-.21a3.25,3.25,0,0,1-2.88-4.76c.28-.53.54-1.07.79-1.62a3.25,3.25,0,0,1,5.93,2.66c-.32.7-.64,1.37-1,2A3.24,3.24,0,0,1,58.79,55.84Zm-15.94-9.2a3.24,3.24,0,0,1-3.11-2.31c-.2-.64-.39-1.29-.58-1.94a3.25,3.25,0,0,1,6.23-1.84l.57,1.9a3.25,3.25,0,0,1-2.17,4A3.06,3.06,0,0,1,42.85,46.64Zm19.57-.12a3.17,3.17,0,0,1-1-.16,3.25,3.25,0,0,1-2.1-4.09c.23-.71.43-1.33.61-1.84a3.25,3.25,0,1,1,6.14,2.14c-.17.47-.35,1-.56,1.69A3.25,3.25,0,0,1,62.42,46.52Z" transform="translate(-13.57 -18.25)"/></g><g id="ARROW"><path class="cls-1" d="M21.45,49l-5.83,10.1a.63.63,0,0,0,.55,1H27.83a.63.63,0,0,0,.55-1L22.55,49A.64.64,0,0,0,21.45,49Z" transform="translate(-13.57 -18.25)"/><path class="cls-1" d="M27.83,62H16.17a2.59,2.59,0,0,1-2.25-1.29,2.62,2.62,0,0,1,0-2.6L19.75,48a2.6,2.6,0,0,1,4.5,0l5.83,10.1a2.62,2.62,0,0,1,0,2.6A2.59,2.59,0,0,1,27.83,62ZM18.48,58h7L22,51.93Zm4.67-8.1Zm-1.7-1h0Z" transform="translate(-13.57 -18.25)"/></g><path class="cls-1" d="M63,44.75H42.5a3.25,3.25,0,0,1,0-6.5H63a3.25,3.25,0,0,1,0,6.5Z" transform="translate(-13.57 -18.25)"/></svg>