<?xml version="1.0" encoding="utf-8"?>
<svg id="LFO_FREE" viewBox="0 0 56.66 43.5" xmlns="http://www.w3.org/2000/svg">
<defs>
<style>.cls-1{fill:#fff;}</style>
</defs>
<g id="WAVE2">
<path class="cls-1" d="M52.74,61.75c-6.75,0-10.13-10-12.77-20.9l-.26-1.05c-3.14-12.35-6.56-15-7.61-15-2.82,0-5.4,9.56-6.37,13.67l-.33,1.37c-4.89,19.35-9.09,22-12.56,22a3.25,3.25,0,0,1-.39-6.48c.93-.77,3.59-5,6.64-17.07.09-.36.2-.79.31-1.28,1.44-6.06,4.43-18.67,12.7-18.67C38,18.25,42.64,25,46,38.2c.07.3.17.68.27,1.11,3.5,14.36,6,15.8,6.53,15.95,0,0,3.52-.77,7-17.43a3.25,3.25,0,1,1,6.36,1.34C63,54.57,58.68,61.75,52.74,61.75Zm-39.9-6.5Z" transform="translate(-9.59 -18.25)" style="fill: rgb(2, 22, 22);"/>
</g>
</svg>