<svg id="LFO_ONE" xmlns="http://www.w3.org/2000/svg" viewBox="0 0 52.68 43.71"><defs><style>.cls-1{fill:#fff;}</style></defs><g id="WAVE_RESET"><path class="cls-1" d="M52,61.75c-7.14,0-10.19-10.38-13.41-21.37C37,35.19,34.2,25.51,32.13,24.74c-2.15,0-5.56,8.29-6.81,16.73a3.25,3.25,0,0,1-6.43-.94,68.25,68.25,0,0,1,2.47-10.31c2.64-7.94,6.29-12,10.85-12,6.64,0,9.4,9.41,12.6,20.3a102.44,102.44,0,0,0,4.25,12.62c1.79,3.9,2.91,4.08,2.92,4.08,2.1,0,4.56-4.33,7.31-12.88.24-.75.46-1.41.64-1.94a3.25,3.25,0,1,1,6.14,2.14c-.17.49-.37,1.1-.59,1.79C63.38,50.86,59.88,61.75,52,61.75Z" transform="translate(-13.57 -18.25)"/></g><g id="ARROW"><path class="cls-1" d="M21.45,49l-5.83,10.1a.63.63,0,0,0,.55,1H27.83a.63.63,0,0,0,.55-1L22.55,49A.64.64,0,0,0,21.45,49Z" transform="translate(-13.57 -18.25)"/><path class="cls-1" d="M27.83,62H16.17a2.59,2.59,0,0,1-2.25-1.29,2.62,2.62,0,0,1,0-2.6L19.75,48a2.6,2.6,0,0,1,4.5,0l5.83,10.1a2.62,2.62,0,0,1,0,2.6A2.59,2.59,0,0,1,27.83,62ZM18.48,58h7L22,51.93Zm4.67-8.1Zm-1.7-1h0Z" transform="translate(-13.57 -18.25)"/></g></svg>