<svg id="LFO_HLD" xmlns="http://www.w3.org/2000/svg" viewBox="0 0 57.59 50.02"><defs><style>.cls-1{fill:#fff;}</style></defs><path class="cls-1" d="M40,63.25H15a3.25,3.25,0,0,1,0-6.5H36.75V40A3.26,3.26,0,0,1,40,36.75H65a3.25,3.25,0,0,1,0,6.5H43.25V60A3.26,3.26,0,0,1,40,63.25Z" transform="translate(-10.66 -13.28)"/><path class="cls-1" d="M13.91,63.3a3.25,3.25,0,0,1-2.11-5.72l1.71-1.46a3.25,3.25,0,0,1,4.22,4.94L16,62.52A3.25,3.25,0,0,1,13.91,63.3Zm8.2-7A3.25,3.25,0,0,1,20,50.57l1.71-1.46a3.25,3.25,0,0,1,4.22,4.94l-1.71,1.46A3.25,3.25,0,0,1,22.11,56.29Zm8.21-7a3.25,3.25,0,0,1-2.12-5.72l1.71-1.46A3.25,3.25,0,1,1,34.13,47l-1.7,1.46A3.28,3.28,0,0,1,30.32,49.28Zm8.2-7a3.25,3.25,0,0,1-2.12-5.72l1.71-1.46A3.25,3.25,0,1,1,42.34,40l-1.71,1.46A3.25,3.25,0,0,1,38.52,42.27Zm8.2-7a3.25,3.25,0,0,1-2.11-5.72l1.71-1.46A3.25,3.25,0,1,1,50.54,33l-1.71,1.46A3.25,3.25,0,0,1,46.72,35.26Zm8.2-7a3.25,3.25,0,0,1-2.11-5.72l1.71-1.46A3.25,3.25,0,0,1,58.74,26L57,27.47A3.25,3.25,0,0,1,54.92,28.25Zm8.2-7A3.25,3.25,0,0,1,61,15.52l1.71-1.46A3.25,3.25,0,0,1,66.94,19l-1.71,1.46A3.25,3.25,0,0,1,63.12,21.24Z" transform="translate(-10.66 -13.28)"/><g id="ARROW"><path class="cls-1" d="M40.55,27.05,46.38,17a.63.63,0,0,0-.55-.95H34.17a.63.63,0,0,0-.55.95l5.83,10.1A.64.64,0,0,0,40.55,27.05Z" transform="translate(-10.66 -13.28)"/><path class="cls-1" d="M40,29.33A2.6,2.6,0,0,1,37.75,28l-5.83-10.1A2.6,2.6,0,0,1,34.17,14H45.83a2.6,2.6,0,0,1,2.25,3.9L42.25,28A2.6,2.6,0,0,1,40,29.33Zm-1.15-3.26Zm0,0h0ZM36.48,18,40,24.07,43.52,18Z" transform="translate(-10.66 -13.28)"/></g></svg>