<?xml version="1.0" encoding="utf-8"?>
<!-- Generator: Adobe Illustrator 25.4.1, SVG Export Plug-In . SVG Version: 6.00 Build 0)  -->
<svg version="1.1" id="Ebene_1" xmlns="http://www.w3.org/2000/svg" xmlns:xlink="http://www.w3.org/1999/xlink" x="0px" y="0px"
	 viewBox="0 0 8 8" style="enable-background:new 0 0 8 8;" xml:space="preserve">
<style type="text/css">
	.st0{fill:#331111;}
	.st1{fill:none;stroke:#FFFFFF;stroke-width:0.39;stroke-miterlimit:10;}
</style>
<path class="st0" d="M2,0h4c1.1,0,2,0.9,2,2v4c0,1.1-0.9,2-2,2H2C0.9,8,0,7.1,0,6V2C0,0.9,0.9,0,2,0z"/>
<path class="st0" d="M7.3,8H0.7C0.3,8,0,7.7,0,7.3V0.7C0,0.3,0.3,0,0.7,0h6.5C7.7,0,8,0.3,8,0.7v6.5C8,7.7,7.7,8,7.3,8z"/>
<path class="st1" d="M6.2,5.4V2.9c0-0.6-0.4-0.8-0.6-0.8C5.6,1.6,5,1.6,5,1.6H4.2c-1.3,0-2,0.5-2,1.8v1.3c0,1.2,0.7,1.8,2,1.8h1.1
	C5.8,6.4,6.2,5.9,6.2,5.4z"/>
<path class="st1" d="M2.3,5.3H1.6c-0.1,0-0.2-0.1-0.2-0.2l0,0l0,0v-2c0-0.1,0.1-0.2,0.2-0.3h0.8"/>
<path class="st1" d="M5.6,2.1C5.6,2.6,5,3,4.4,3C4.1,3,3.8,3,3.5,2.8"/>
<path class="st1" d="M4,6.3C3.7,5.7,3.6,5.1,3.6,4.5c0-0.5,0.1-1,0.3-1.5"/>
</svg>
