<?xml version="1.0" encoding="utf-8"?>
<svg viewBox="0 0 50 50" width="50" height="50" xmlns="http://www.w3.org/2000/svg">
<path style="fill: rgb(43, 43, 43);" d="M 20 35 L 35 35 L 35 20 C 35 17.24 37.24 15 40 15 C 42.76 15 45 17.24 45 20 L 45 45 L 20 45 C 17.24 45 15 42.76 15 40 C 15 37.24 17.24 35 20 35 Z"/>
<path style="fill: rgb(132, 132, 132);" d="M 18 33 L 33 33 L 33 18 C 33 15.24 35.24 13 38 13 C 40.76 13 43 15.24 43 18 L 43 43 L 18 43 C 15.24 43 13 40.76 13 38 C 13 35.24 15.24 33 18 33 Z"/>
</svg>